<?xml version="1.0" standalone="no"?>
<!DOCTYPE svg PUBLIC "-//W3C//DTD SVG 20010904//EN"
 "http://www.w3.org/TR/2001/REC-SVG-20010904/DTD/svg10.dtd">
<svg version="1.0" xmlns="http://www.w3.org/2000/svg"
 width="320.000000pt" height="70.000000pt" viewBox="0 0 320.000000 70.000000"
 preserveAspectRatio="xMidYMid meet">

<g transform="translate(0.000000,70.000000) scale(0.100000,-0.100000)"
fill="#000000" stroke="none">
<path d="M2455 615 c-31 -30 -35 -61 -6 -45 27 14 37 32 14 23 -17 -6 -17 -5
1 15 15 17 32 22 95 25 l76 3 -78 2 c-71 2 -80 0 -102 -23z"/>
<path d="M2641 616 c-7 -12 -11 -34 -8 -47 4 -21 4 -21 6 5 0 16 8 38 18 48 9
10 12 18 6 18 -5 0 -15 -11 -22 -24z"/>
<path d="M2953 610 c6 -16 13 -27 15 -25 7 7 -8 55 -17 55 -5 0 -4 -13 2 -30z"/>
<path d="M3115 633 c31 -8 55 -34 56 -62 2 -25 2 -25 6 -3 6 30 -32 72 -61 71
-20 -1 -20 -1 -1 -6z"/>
<path d="M2730 623 c8 -3 26 -15 40 -28 26 -23 80 -32 80 -14 0 6 7 8 16 5 9
-4 23 -1 31 6 12 10 18 9 29 -7 14 -19 20 -9 6 11 -16 24 -55 34 -134 33 -46
0 -76 -3 -68 -6z"/>
<path d="M406 603 c-6 -14 -5 -15 5 -6 7 7 10 15 7 18 -3 3 -9 -2 -12 -12z"/>
<path d="M2679 603 c-13 -17 -13 -17 6 -3 11 8 22 16 24 17 2 2 0 3 -6 3 -6 0
-17 -8 -24 -17z"/>
<path d="M330 600 c-12 -7 -12 -10 3 -16 21 -8 29 -3 19 13 -5 8 -13 9 -22 3z"/>
<path d="M2661 564 c0 -11 3 -14 6 -6 3 7 2 16 -1 19 -3 4 -6 -2 -5 -13z"/>
<path d="M205 560 c3 -5 13 -10 21 -10 8 0 14 5 14 10 0 6 -9 10 -21 10 -11 0
-17 -4 -14 -10z"/>
<path d="M2483 553 c21 -5 20 -3 3 -45 -16 -37 -18 -36 35 -29 4 1 9 18 10 39
4 36 3 37 -31 38 -19 1 -27 0 -17 -3z"/>
<path d="M828 533 c7 -3 16 -2 19 1 4 3 -2 6 -13 5 -11 0 -14 -3 -6 -6z"/>
<path d="M918 533 c7 -3 16 -2 19 1 4 3 -2 6 -13 5 -11 0 -14 -3 -6 -6z"/>
<path d="M1228 533 c7 -3 16 -2 19 1 4 3 -2 6 -13 5 -11 0 -14 -3 -6 -6z"/>
<path d="M1318 533 c7 -3 16 -2 19 1 4 3 -2 6 -13 5 -11 0 -14 -3 -6 -6z"/>
<path d="M1508 533 c18 -2 45 -2 60 0 15 2 0 4 -33 4 -33 0 -45 -2 -27 -4z"/>
<path d="M1788 533 c18 -2 45 -2 60 0 15 2 0 4 -33 4 -33 0 -45 -2 -27 -4z"/>
<path d="M1933 533 c15 -2 39 -2 55 0 15 2 2 4 -28 4 -30 0 -43 -2 -27 -4z"/>
<path d="M2128 533 c28 -2 76 -2 105 0 28 2 5 3 -53 3 -58 0 -81 -1 -52 -3z"/>
<path d="M3128 515 c-2 -12 -9 -19 -19 -17 -9 1 -22 -12 -32 -32 -14 -31 -21
-35 -59 -38 -43 -3 -43 -3 -45 -43 -2 -42 1 -39 11 8 4 18 13 27 26 27 32 0
103 -31 133 -58 25 -24 40 -19 16 5 -8 8 -6 18 6 36 13 20 15 36 9 74 -5 26
-7 51 -6 55 1 4 -7 6 -18 5 -11 -1 -20 -10 -22 -22z"/>
<path d="M1000 506 c0 -2 8 -10 18 -17 15 -13 16 -12 3 4 -13 16 -21 21 -21
13z"/>
<path d="M2340 506 c0 -2 8 -10 18 -17 15 -13 16 -12 3 4 -13 16 -21 21 -21
13z"/>
<path d="M2624 445 c-4 -10 -20 -15 -50 -15 l-44 0 2 -42 1 -43 4 38 c5 41 6
42 51 26 23 -8 33 -19 40 -47 9 -35 10 -33 11 31 1 66 -4 82 -15 52z"/>
<path d="M2661 398 c1 -35 4 -53 6 -41 2 12 15 29 29 37 28 19 30 29 8 50 -32
33 -44 20 -43 -46z"/>
<path d="M2843 400 c0 -36 2 -50 4 -32 2 17 2 47 0 65 -2 17 -4 3 -4 -33z"/>
<path d="M2753 400 c0 -30 2 -43 4 -27 2 15 2 39 0 55 -2 15 -4 2 -4 -28z"/>
<path d="M2943 400 c0 -25 2 -35 4 -22 2 12 2 32 0 45 -2 12 -4 2 -4 -23z"/>
<path d="M2230 340 l-45 -7 42 -1 c23 -1 45 3 48 8 3 6 5 9 3 8 -2 0 -23 -4
-48 -8z"/>
<path d="M894 278 l-19 -23 22 18 c12 11 27 16 34 11 8 -4 10 -3 5 4 -10 17
-21 15 -42 -10z"/>
<path d="M2899 293 c-1 -5 -1 -11 0 -15 0 -4 -8 -9 -18 -13 -10 -3 -23 -17
-29 -30 -9 -20 -19 -25 -50 -25 -21 0 -43 5 -50 12 -9 9 -16 8 -30 -5 -10 -9
-22 -14 -25 -10 -4 3 -7 1 -7 -6 0 -8 -7 -11 -15 -7 -23 8 -18 -12 10 -39 22
-23 32 -25 109 -25 87 0 131 12 140 37 11 26 -6 133 -20 133 -8 0 -15 -3 -15
-7z m-55 -115 c-5 -8 0 -7 11 2 13 11 19 12 22 3 2 -7 10 -10 18 -7 7 3 16 1
19 -5 10 -16 -28 -31 -78 -31 -39 0 -44 3 -39 17 5 12 8 13 11 4 3 -8 9 -6 19
8 15 23 29 29 17 9z"/>
<path d="M2454 243 c4 -21 8 -43 8 -50 1 -7 6 -9 12 -5 6 3 24 5 40 3 23 -2
28 0 22 14 -3 9 -6 30 -6 46 0 27 -2 29 -41 29 l-42 0 7 -37z"/>
<path d="M1227 219 c7 -7 15 -10 18 -7 3 3 -2 9 -12 12 -14 6 -15 5 -6 -5z"/>
<path d="M2430 184 c0 -22 34 -64 52 -64 7 0 4 6 -5 13 -9 6 -23 26 -32 42
-12 24 -15 26 -15 9z"/>
<path d="M2635 158 l3 -37 -72 -4 -71 -3 88 -2 c86 -2 101 4 73 28 -8 6 -17
21 -19 33 -3 12 -3 5 -2 -15z"/>
<path d="M2970 186 c0 -7 -9 -25 -21 -40 l-20 -26 103 0 c91 0 107 3 126 20
12 12 22 27 22 35 0 26 -29 16 -45 -15 -22 -42 -61 -41 -109 5 -40 37 -56 43
-56 21z"/>
</g>
</svg>
